<?xml version="1.0" encoding="utf-8"?>
<!-- Generator: Adobe Illustrator 15.1.0, SVG Export Plug-In . SVG Version: 6.00 Build 0)  -->
<!DOCTYPE svg PUBLIC "-//W3C//DTD SVG 1.1//EN" "http://www.w3.org/Graphics/SVG/1.1/DTD/svg11.dtd">
<svg version="1.1" id="Layer_1" xmlns="http://www.w3.org/2000/svg" xmlns:xlink="http://www.w3.org/1999/xlink" x="0px" y="0px"
	 width="196px" height="236px" viewBox="324 7 196 236" enable-background="new 324 7 196 236" xml:space="preserve">
<g>
	<path d="M399.04,204.12c-0.756,2.269-1.26,5.04-1.26,7.56c0,13.86,11.34,25.2,25.2,25.2c13.859,0,25.199-11.34,25.199-25.2
		c0-2.52-0.504-5.291-1.26-7.56H399.04z"/>
	<path d="M496.06,158.76v-5.04v-20.664v-24.192c0-18.144-6.804-35.532-19.151-48.636c-5.292-5.796-11.34-10.332-18.145-13.86l0,0
		l0,0c-1.008-0.504-2.016-1.008-3.023-1.512c-3.024-1.512-6.048-2.52-9.072-3.528c0,0,0,0-0.252,0
		c-1.512-0.504-3.276-1.008-5.04-1.26c0.252-1.008,0.252-2.016,0.252-3.276c0-10.332-8.568-18.9-18.9-18.9
		c-10.331,0-18.899,8.568-18.899,18.9c0,1.26,0,2.268,0.252,3.276c-1.764,0.504-3.276,0.756-5.04,1.26c0,0,0,0-0.252,0
		c-3.024,1.008-6.048,2.268-9.072,3.528c-1.008,0.504-2.016,1.008-3.024,1.512l0,0l0,0c-6.804,3.528-12.852,8.064-18.144,13.86
		C356.704,73.332,349.9,90.72,349.9,108.864v24.192v20.664v5.04c-9.576,0-17.64,7.813-17.64,17.641c0,9.576,8.064,17.64,17.64,17.64
		h146.16c9.576,0,17.641-8.063,17.641-17.64C513.7,166.572,505.636,158.76,496.06,158.76z"/>
</g>
<circle cx="769.48" cy="318.78" r="39.06"/>
<path d="M639.7,204.12c-0.756,2.269-1.26,5.04-1.26,7.56c0,13.86,11.34,25.2,25.199,25.2c13.86,0,25.2-11.34,25.2-25.2
	c0-2.52-0.504-5.291-1.26-7.56H639.7z"/>
<path d="M736.72,158.76v-5.04v-20.664c-2.016,0.252-4.284,0.504-6.3,0.504c-27.216,0-49.14-21.924-49.14-49.14
	c0-15.372,7.056-28.98,18.144-38.052c-5.292-3.024-11.088-5.04-17.136-6.552c0.252-1.008,0.252-2.016,0.252-3.276
	c0-10.332-8.568-18.9-18.9-18.9s-18.899,8.568-18.899,18.9c0,1.008,0.252,2.268,0.252,3.276
	c-13.356,3.276-25.704,10.08-35.28,20.412l0,0c-12.348,13.104-19.152,30.492-19.152,48.636v44.856v5.04
	c-9.575,0-17.64,7.813-17.64,17.641c0,9.576,8.064,17.64,17.64,17.64h146.16c9.576,0,17.641-8.063,17.641-17.64
	C754.36,166.572,746.296,158.76,736.72,158.76z"/>
<circle cx="730.42" cy="84.42" r="39.06"/>
</svg>
