<?xml version="1.0" encoding="utf-8"?>
<!-- Generator: Adobe Illustrator 15.1.0, SVG Export Plug-In . SVG Version: 6.00 Build 0)  -->
<!DOCTYPE svg PUBLIC "-//W3C//DTD SVG 1.1//EN" "http://www.w3.org/Graphics/SVG/1.1/DTD/svg11.dtd">
<svg version="1.1" id="Layer_1" xmlns="http://www.w3.org/2000/svg" xmlns:xlink="http://www.w3.org/1999/xlink" x="0px" y="0px"
	 width="228px" height="222px" viewBox="311 47 228 222" enable-background="new 311 47 228 222" xml:space="preserve">
<path d="M425.5,260.82c-55.692,0-100.8-45.108-100.8-100.801c0-55.691,45.108-100.799,100.8-100.799
	c55.692,0,100.8,45.108,100.8,100.799C526.3,215.712,481.192,260.82,425.5,260.82z M425.5,71.064
	c-49.14,0-88.956,39.816-88.956,88.956c0,49.141,39.816,88.957,88.956,88.957c49.14,0,88.956-39.816,88.956-88.957
	C514.456,110.88,474.64,71.064,425.5,71.064z"/>
<polygon points="483.856,207.882 435.993,160.019 483.66,112.158 473.264,101.761 425.401,149.623 377.736,101.761 367.339,112.158 
	415.006,160.019 367.143,207.882 377.736,218.278 425.401,170.415 473.264,218.278 "/>
</svg>
