<?xml version="1.0" encoding="utf-8"?>
<!-- Generator: Adobe Illustrator 15.1.0, SVG Export Plug-In . SVG Version: 6.00 Build 0)  -->
<!DOCTYPE svg PUBLIC "-//W3C//DTD SVG 1.1//EN" "http://www.w3.org/Graphics/SVG/1.1/DTD/svg11.dtd">
<svg version="1.1" id="Layer_1" xmlns="http://www.w3.org/2000/svg" xmlns:xlink="http://www.w3.org/1999/xlink" x="0px" y="0px"
	 width="213px" height="230px" viewBox="320 43 213 230" enable-background="new 320 43 213 230" xml:space="preserve">
<g>
	<path d="M425.5,92.736c-35.784,0-64.764,28.98-64.764,64.764s28.98,64.764,64.764,64.764s64.764-28.979,64.764-64.764
		S461.284,92.736,425.5,92.736z M429.532,159.264L400.3,187.488l-5.796-5.797l26.964-25.956v-49.392h8.316v52.92H429.532z"/>
	<path d="M425.5,61.74c-52.668,0-95.76,42.84-95.76,95.76s42.84,95.76,95.76,95.76s95.76-42.84,95.76-95.76
		S478.168,61.74,425.5,61.74z M425.5,230.328c-40.32,0-72.828-32.76-72.828-72.828c0-40.068,32.508-72.828,72.828-72.828
		c40.32,0,72.828,32.76,72.828,72.828C498.328,197.568,465.82,230.328,425.5,230.328z"/>
</g>
</svg>
