<?xml version="1.0" encoding="utf-8"?>
<!-- Generator: Adobe Illustrator 15.1.0, SVG Export Plug-In . SVG Version: 6.00 Build 0)  -->
<!DOCTYPE svg PUBLIC "-//W3C//DTD SVG 1.1//EN" "http://www.w3.org/Graphics/SVG/1.1/DTD/svg11.dtd">
<svg version="1.1" id="Layer_1" xmlns="http://www.w3.org/2000/svg" xmlns:xlink="http://www.w3.org/1999/xlink" x="0px" y="0px"
	 width="220px" height="213px" viewBox="315 55 220 213" enable-background="new 315 55 220 213" xml:space="preserve">
<path d="M425.5,260.82c-55.692,0-100.8-45.108-100.8-100.801c0-55.691,45.108-100.799,100.8-100.799
	c55.692,0,100.8,45.108,100.8,100.799C526.3,215.712,481.192,260.82,425.5,260.82z M425.5,71.064
	c-49.14,0-88.956,39.816-88.956,88.956c0,49.141,39.816,88.957,88.956,88.957c49.14,0,88.956-39.816,88.956-88.957
	C514.456,110.88,474.64,71.064,425.5,71.064z"/>
<path d="M486.232,124.74l-25.704-25.704c-1.513-1.512-4.284-1.512-6.048,0l-73.836,74.088c-0.504,0.504-1.008,1.26-1.26,2.269
	l-6.552,32.004c-0.252,1.512,0.252,2.771,1.26,3.779c0.756,0.756,1.764,1.26,3.024,1.26c0.252,0,0.504,0,0.756,0l32.004-6.552
	c0.756-0.252,1.512-0.504,2.268-1.26l74.089-74.088c0.756-0.756,1.26-1.764,1.26-3.024
	C487.492,126.252,486.988,125.496,486.232,124.74z M413.404,191.52l-6.301,6.301l-24.443,5.039l5.04-24.443l6.3-6.3L413.404,191.52z
	 M461.788,143.136l-42.336,42.337l-19.656-19.656l42.336-42.336L461.788,143.136z M477.16,127.764l-9.324,9.324l-19.656-19.656
	l9.324-9.324L477.16,127.764z"/>
</svg>
