<?xml version="1.0" encoding="utf-8"?>
<!-- Generator: Adobe Illustrator 15.1.0, SVG Export Plug-In . SVG Version: 6.00 Build 0)  -->
<!DOCTYPE svg PUBLIC "-//W3C//DTD SVG 1.1//EN" "http://www.w3.org/Graphics/SVG/1.1/DTD/svg11.dtd">
<svg version="1.1" id="Layer_1" xmlns="http://www.w3.org/2000/svg" xmlns:xlink="http://www.w3.org/1999/xlink" x="0px" y="0px"
	 width="338px" height="257px" viewBox="258 0 338 257" enable-background="new 258 0 338 257" xml:space="preserve">
<path d="M425.5,252c-69.473,0-126-56.527-126-126c0-69.473,56.527-126,126-126c69.474,0,126,56.527,126,126
	C551.5,195.473,494.974,252,425.5,252z M425.5,14.821c-61.315,0-111.179,49.864-111.179,111.179
	c0,61.314,49.864,111.18,111.179,111.18c61.314,0,111.18-49.865,111.18-111.18C536.68,64.685,486.814,14.821,425.5,14.821z"/>
<path d="M433.375,187.646c0,4.347-3.528,7.875-7.875,7.875l0,0c-4.347,0-7.875-3.528-7.875-7.875V85.759
	c0-4.347,3.528-7.875,7.875-7.875l0,0c4.347,0,7.875,3.528,7.875,7.875V187.646z"/>
<path d="M433.375,64.354c0,4.347-3.528,7.875-7.875,7.875l0,0c-4.347,0-7.875-3.528-7.875-7.875l0,0
	c0-4.347,3.528-7.875,7.875-7.875l0,0C429.847,56.479,433.375,60.007,433.375,64.354L433.375,64.354z"/>
<text transform="matrix(1 0 0 1 299.5 488.2529)" font-family="'Arial-BoldMT'" font-size="78.75">Created by Adnen Kadri</text>
<text transform="matrix(1 0 0 1 299.5 567.0029)" font-family="'Arial-BoldMT'" font-size="78.75">from the Noun Project</text>
</svg>
