<?xml version="1.0" encoding="utf-8"?>
<!-- Generator: Adobe Illustrator 15.1.0, SVG Export Plug-In . SVG Version: 6.00 Build 0)  -->
<!DOCTYPE svg PUBLIC "-//W3C//DTD SVG 1.1//EN" "http://www.w3.org/Graphics/SVG/1.1/DTD/svg11.dtd">
<svg version="1.1" id="Layer_1" xmlns="http://www.w3.org/2000/svg" xmlns:xlink="http://www.w3.org/1999/xlink" x="0px" y="0px"
	 width="151px" height="68px" viewBox="23.5 31.5 151 68" enable-background="new 23.5 31.5 151 68" xml:space="preserve">
<path d="M99,78.6c-7.056,0-12.6-5.543-12.6-12.6S91.944,53.4,99,53.4c7.055,0,12.6,5.543,12.6,12.6S106.055,78.6,99,78.6z M66.24,66
	c0-7.057-5.545-12.6-12.6-12.6c-7.057,0-12.601,5.543-12.601,12.6s5.544,12.6,12.601,12.6C60.695,78.6,66.24,73.057,66.24,66z
	 M131.76,66c0,7.057,5.543,12.6,12.602,12.6c7.055,0,12.6-5.543,12.6-12.6s-5.545-12.6-12.6-12.6
	C137.303,53.4,131.76,58.943,131.76,66z"/>
</svg>
