<?xml version="1.0" encoding="utf-8"?>
<!-- Generator: Adobe Illustrator 15.1.0, SVG Export Plug-In . SVG Version: 6.00 Build 0)  -->
<!DOCTYPE svg PUBLIC "-//W3C//DTD SVG 1.1//EN" "http://www.w3.org/Graphics/SVG/1.1/DTD/svg11.dtd">
<svg version="1.1" id="Layer_1" xmlns="http://www.w3.org/2000/svg" xmlns:xlink="http://www.w3.org/1999/xlink" x="0px" y="0px"
	 width="228px" height="222px" viewBox="311 47 228 222" enable-background="new 311 47 228 222" xml:space="preserve">
<path d="M425.5,260.82c-55.692,0-100.8-45.108-100.8-100.801c0-55.691,45.108-100.799,100.8-100.799
	c55.692,0,100.8,45.108,100.8,100.799C526.3,215.712,481.192,260.82,425.5,260.82z M425.5,71.064
	c-49.14,0-88.956,39.816-88.956,88.956c0,49.141,39.816,88.957,88.956,88.957c49.14,0,88.956-39.816,88.956-88.957
	C514.456,110.88,474.64,71.064,425.5,71.064z"/>
<polygon points="363.241,154.146 353.3,164.088 406.317,217.104 497.701,125.895 487.761,115.954 406.317,197.397 "/>
</svg>
