<?xml version="1.0" encoding="utf-8"?>
<!-- Generator: Adobe Illustrator 15.1.0, SVG Export Plug-In . SVG Version: 6.00 Build 0)  -->
<!DOCTYPE svg PUBLIC "-//W3C//DTD SVG 1.1//EN" "http://www.w3.org/Graphics/SVG/1.1/DTD/svg11.dtd">
<svg version="1.1" id="Layer_1" xmlns="http://www.w3.org/2000/svg" xmlns:xlink="http://www.w3.org/1999/xlink" x="0px" y="0px"
	 width="255px" height="250px" viewBox="301 0 255 250" enable-background="new 301 0 255 250" xml:space="preserve">
<g>
	<path d="M317.382,242.936c-2.356,0-4.569-0.918-6.237-2.583c-3.438-3.438-3.438-9.034,0-12.472l60.691-60.691
		c-31.777-38.118-29.441-94.49,5.947-129.873c18.22-18.22,42.439-28.252,68.202-28.252c25.765,0,49.981,10.032,68.198,28.252
		c18.218,18.217,28.252,42.434,28.252,68.199c0,25.762-10.032,49.981-28.252,68.199c-18.217,18.217-42.434,28.251-68.198,28.251
		c-22.638,0-44.4-7.895-61.68-22.301l-60.689,60.688C321.951,242.018,319.735,242.936,317.382,242.936z M445.985,26.705
		c-21.053,0-40.842,8.197-55.728,23.083c-14.858,14.858-23.045,34.65-23.045,55.725s8.185,40.867,23.045,55.728
		c14.886,14.885,34.678,23.082,55.728,23.082c21.049,0,40.842-8.197,55.725-23.082c14.886-14.886,23.083-34.678,23.083-55.728
		c0-21.049-8.197-40.839-23.083-55.725S467.032,26.705,445.985,26.705z"/>
</g>
<text transform="matrix(1 0 0 1 299.5005 289.8008)" display="none" enable-background="new    " font-family="'Arial-BoldMT'" font-size="12.6">Created by Deepz</text>
<text transform="matrix(1 0 0 1 299.5005 302.4004)" display="none" enable-background="new    " font-family="'Arial-BoldMT'" font-size="12.6">from the Noun Project</text>
</svg>
