<?xml version="1.0" encoding="utf-8"?>
<!-- Generator: Adobe Illustrator 15.1.0, SVG Export Plug-In . SVG Version: 6.00 Build 0)  -->
<!DOCTYPE svg PUBLIC "-//W3C//DTD SVG 1.1//EN" "http://www.w3.org/Graphics/SVG/1.1/DTD/svg11.dtd">
<svg version="1.1"
	 id="Layer_1" xmlns:cc="http://creativecommons.org/ns#" xmlns:dc="http://purl.org/dc/elements/1.1/" xmlns:inkscape="http://www.inkscape.org/namespaces/inkscape" xmlns:rdf="http://www.w3.org/1999/02/22-rdf-syntax-ns#" xmlns:sodipodi="http://sodipodi.sourceforge.net/DTD/sodipodi-0.dtd" xmlns:svg="http://www.w3.org/2000/svg"
	 xmlns="http://www.w3.org/2000/svg" xmlns:xlink="http://www.w3.org/1999/xlink" x="0px" y="0px" width="234px" height="163.024px"
	 viewBox="307 47.976 234 163.024" enable-background="new 307 47.976 234 163.024" xml:space="preserve">
<g transform="translate(0,-952.36218)">
	<path d="M425.5,1000.338c-16.128,0-32.256,6.048-44.604,18.396c-10.332,10.332-16.38,23.688-18.144,37.296
		c-25.452,2.268-45.612,23.688-45.612,50.148c0,27.72,22.68,50.399,50.4,50.399H491.02c23.688,0,42.841-19.151,42.841-42.84
		c0-23.688-19.152-42.84-42.841-42.84h-3.023c2.268-18.648-3.78-37.8-18.145-52.164
		C457.756,1006.386,441.628,1000.338,425.5,1000.338z M425.5,1050.738c1.26,0,2.268,0.252,3.276,1.26l27.72,25.2
		c2.016,1.764,2.268,5.292,0.504,7.056c-1.764,1.764-5.292,2.016-7.056,0.252l-19.404-17.64v59.219c0,2.772-2.268,5.041-5.04,5.041
		s-5.04-2.269-5.04-5.041v-59.219l-19.404,17.64c-2.016,1.764-5.292,1.764-7.056-0.252c-1.764-2.016-1.764-5.292,0.504-7.056
		l27.72-25.2C422.728,1051.242,424.24,1050.738,425.5,1050.738L425.5,1050.738z"/>
</g>
</svg>
